<?xml version="1.0" standalone="no"?>
<!DOCTYPE svg PUBLIC "-//W3C//DTD SVG 1.1//EN" "http://www.w3.org/Graphics/SVG/1.1/DTD/svg11.dtd">
<svg xmlns="http://www.w3.org/2000/svg" id="content" viewBox="0 0 512 512" width="512" height="512"><defs><style>.cls-1{stroke-width:0px;}</style></defs><path class="cls-1" d="m358.56,39.65c-6.94-8.15-18.33-8.26-25.4-.24l-224.99,255.57c-7.06,8.02-7.15,21.17-.21,29.33,3.4,4,7.95,6.2,12.8,6.2s9.21-2.12,12.59-5.96l224.99-255.56c7.06-8.02,7.16-21.18.21-29.33Z"/><path class="cls-1" d="m443.42,65.81c.04-5.54-1.79-10.77-5.15-14.72-6.94-8.15-18.33-8.26-25.4-.24L152.32,346.81c-7.06,8.02-7.15,21.18-.21,29.33,3.4,4,7.94,6.2,12.8,6.2s9.21-2.11,12.59-5.95L438.05,80.43c3.42-3.89,5.33-9.07,5.37-14.62Z"/><path class="cls-1" d="m487.57,117.65c.04-5.54-1.79-10.77-5.15-14.72-3.37-3.95-7.86-6.15-12.65-6.2-4.61.03-9.32,2.07-12.74,5.95L196.46,398.66c-7.06,8.02-7.15,21.17-.21,29.34,3.41,3.99,7.95,6.19,12.8,6.19s9.21-2.12,12.59-5.96L482.2,132.27c3.42-3.88,5.33-9.07,5.37-14.61Z"/><path class="cls-1" d="m500.85,183.98c-6.95-8.16-18.34-8.26-25.4-.24l-234.84,266.75c-7.06,8.02-7.16,21.18-.21,29.33,3.4,4,7.95,6.2,12.8,6.2s9.21-2.11,12.59-5.95l234.84-266.76c3.42-3.89,5.33-9.07,5.37-14.62.04-5.54-1.79-10.77-5.15-14.72Z"/><path class="cls-1" d="m205.44,126.68c3.41,4.05,7.98,6.28,12.87,6.28s9.15-2.08,12.52-5.87c3.44-3.86,5.37-9.04,5.44-14.58.07-5.54-1.74-10.78-5.08-14.76l-55.14-65.51c-6.91-8.2-18.3-8.39-25.39-.41-3.44,3.86-5.37,9.04-5.44,14.58-.07,5.54,1.74,10.78,5.08,14.76l55.14,65.51Z"/><path class="cls-1" d="m160.3,177.36c3.41,4.06,7.98,6.29,12.88,6.29s9.14-2.08,12.52-5.87c7.1-7.97,7.26-21.13.36-29.33L94.96,40.22c-6.91-8.2-18.29-8.38-25.4-.41-7.1,7.97-7.26,21.13-.36,29.33l91.09,108.22Z"/><path class="cls-1" d="m115.16,228.05c3.41,4.05,7.98,6.28,12.87,6.28s9.15-2.08,12.52-5.87c3.44-3.86,5.37-9.04,5.44-14.58.07-5.54-1.74-10.78-5.08-14.75L49.82,90.91c-6.91-8.21-18.3-8.38-25.4-.41-7.1,7.97-7.26,21.13-.36,29.33l91.1,108.22Z"/><path class="cls-1" d="m36.83,179.79c-6.9-8.2-18.3-8.38-25.4-.41-7.1,7.97-7.26,21.13-.36,29.33l58.94,70.03c3.41,4.05,7.99,6.28,12.88,6.28s9.15-2.08,12.52-5.87c7.1-7.97,7.26-21.13.36-29.33l-58.94-70.03Z"/></svg>