<?xml version="1.0" standalone="no"?>
<!DOCTYPE svg PUBLIC "-//W3C//DTD SVG 1.1//EN" "http://www.w3.org/Graphics/SVG/1.1/DTD/svg11.dtd">
<svg xmlns="http://www.w3.org/2000/svg" id="content" viewBox="0 0 512 512" width="512" height="512"><defs><style>.cls-1{fill:#fff;stroke-width:0px;}</style></defs><path class="cls-1" d="m345.76,36.46c3.97,0,7.7,1.82,10.52,5.13,6.01,7.06,5.93,18.46-.18,25.4l-224.99,255.57c-2.8,3.18-6.47,4.94-10.34,4.94s-7.7-1.83-10.52-5.15c-6.01-7.06-5.93-18.46.18-25.4L335.41,41.39c2.8-3.18,6.47-4.93,10.34-4.93m0-3c-4.55,0-9.1,1.98-12.59,5.94l-224.99,255.57c-7.06,8.02-7.15,21.17-.21,29.33,3.4,4,7.95,6.2,12.8,6.2s9.21-2.12,12.59-5.96l224.99-255.56c7.06-8.02,7.16-21.18.21-29.33-3.51-4.12-8.15-6.19-12.8-6.19h0Z"/><path class="cls-1" d="m425.46,47.91c3.97,0,7.7,1.82,10.52,5.13,2.9,3.4,4.47,7.93,4.44,12.75-.03,4.82-1.67,9.31-4.62,12.65L175.25,374.41c-2.8,3.18-6.47,4.93-10.34,4.93s-7.7-1.83-10.52-5.14c-6.02-7.06-5.94-18.46.18-25.4L415.12,52.83c2.8-3.18,6.47-4.93,10.34-4.93m0-3c-4.55,0-9.1,1.98-12.59,5.94L152.32,346.81c-7.06,8.02-7.15,21.18-.21,29.33,3.4,4,7.94,6.2,12.8,6.2s9.21-2.11,12.59-5.95L438.05,80.43c3.42-3.89,5.33-9.07,5.37-14.62.04-5.54-1.79-10.77-5.15-14.72-3.51-4.12-8.15-6.19-12.8-6.19h0Z"/><path class="cls-1" d="m469.75,99.74c3.9.04,7.59,1.87,10.38,5.14,2.9,3.4,4.47,7.93,4.44,12.75-.03,4.81-1.67,9.31-4.62,12.65L219.4,426.25c-2.8,3.18-6.47,4.94-10.34,4.94s-7.69-1.83-10.52-5.14c-6.02-7.07-5.94-18.47.17-25.41L459.27,104.68c2.73-3.1,6.55-4.9,10.49-4.94m0-3c-4.61.03-9.32,2.07-12.74,5.95L196.46,398.66c-7.06,8.02-7.15,21.17-.21,29.34,3.41,3.99,7.95,6.19,12.8,6.19s9.21-2.12,12.59-5.96L482.2,132.27c3.42-3.88,5.33-9.07,5.37-14.61.04-5.54-1.79-10.77-5.15-14.72-3.37-3.95-7.86-6.15-12.66-6.2h0Z"/><path class="cls-1" d="m488.04,180.79c3.96,0,7.7,1.82,10.52,5.13,2.9,3.4,4.47,7.93,4.44,12.75-.03,4.82-1.67,9.31-4.62,12.65l-234.84,266.76c-2.81,3.18-6.48,4.94-10.34,4.94s-7.69-1.83-10.52-5.14c-6.01-7.06-5.93-18.46.18-25.4l234.84-266.75c2.8-3.18,6.47-4.93,10.34-4.93m0-3c-4.55,0-9.1,1.98-12.59,5.95l-234.84,266.75c-7.06,8.02-7.16,21.18-.21,29.33,3.4,4,7.95,6.2,12.8,6.2s9.21-2.11,12.59-5.95l234.84-266.76c3.42-3.89,5.33-9.07,5.37-14.62.04-5.54-1.79-10.77-5.15-14.72-3.51-4.12-8.16-6.19-12.8-6.19h0Z"/><path class="cls-1" d="m163.17,28.98c4,0,7.76,1.85,10.59,5.21l55.14,65.51c2.88,3.42,4.44,7.96,4.38,12.79-.06,4.82-1.72,9.3-4.68,12.62-2.79,3.14-6.44,4.86-10.28,4.86s-7.75-1.85-10.58-5.22l-55.14-65.51c-2.88-3.42-4.44-7.96-4.38-12.79.06-4.82,1.72-9.3,4.68-12.62,2.79-3.13,6.43-4.85,10.27-4.85m0-3c-4.51,0-9.03,1.95-12.51,5.86-3.44,3.86-5.37,9.04-5.44,14.58-.07,5.54,1.74,10.78,5.08,14.76l55.14,65.51c3.41,4.05,7.98,6.28,12.87,6.28s9.15-2.08,12.52-5.87c3.44-3.86,5.37-9.04,5.44-14.58.07-5.54-1.74-10.78-5.08-14.76l-55.14-65.51c-3.52-4.18-8.2-6.28-12.88-6.28h0Z"/><path class="cls-1" d="m82.08,36.95c4,0,7.76,1.85,10.58,5.2l91.09,108.22c5.98,7.11,5.84,18.5-.3,25.4-2.8,3.14-6.45,4.87-10.28,4.87s-7.75-1.85-10.58-5.22l-91.09-108.22c-5.98-7.1-5.85-18.5.3-25.4,2.79-3.13,6.44-4.86,10.28-4.86m0-3c-4.51,0-9.03,1.95-12.52,5.86-7.1,7.97-7.26,21.13-.36,29.33l91.09,108.22c3.41,4.06,7.98,6.29,12.88,6.29s9.14-2.08,12.52-5.87c7.1-7.97,7.26-21.13.36-29.33L94.96,40.22c-3.52-4.17-8.2-6.27-12.88-6.27h0Z"/><path class="cls-1" d="m36.94,87.63c4,0,7.76,1.85,10.59,5.21l91.09,108.22c2.88,3.42,4.43,7.96,4.38,12.78-.06,4.82-1.72,9.3-4.68,12.62-2.79,3.14-6.44,4.86-10.28,4.86s-7.75-1.85-10.58-5.21L26.36,117.89c-5.98-7.1-5.85-18.5.3-25.4,2.79-3.13,6.44-4.86,10.28-4.86m0-3c-4.52,0-9.03,1.95-12.52,5.86-7.1,7.97-7.26,21.13-.36,29.33l91.1,108.22c3.41,4.05,7.98,6.28,12.87,6.28s9.15-2.08,12.52-5.87c3.44-3.86,5.37-9.04,5.44-14.58.07-5.54-1.74-10.78-5.08-14.75L49.82,90.91c-3.52-4.18-8.2-6.27-12.88-6.27h0Z"/><path class="cls-1" d="m23.95,176.51c4,0,7.76,1.85,10.58,5.2l58.94,70.03c5.98,7.1,5.85,18.5-.3,25.4-2.79,3.14-6.44,4.86-10.28,4.86s-7.75-1.85-10.58-5.21L13.37,206.77c-5.98-7.1-5.85-18.5.3-25.4,2.79-3.13,6.44-4.86,10.28-4.86m0-3c-4.51,0-9.03,1.95-12.52,5.86-7.1,7.97-7.26,21.13-.36,29.33l58.94,70.03c3.41,4.05,7.99,6.28,12.88,6.28s9.15-2.08,12.52-5.87c7.1-7.97,7.26-21.13.36-29.33l-58.94-70.03c-3.52-4.18-8.19-6.27-12.88-6.27h0Z"/></svg>